<svg width="24" height="25" viewBox="0 0 24 25" fill="none" xmlns="http://www.w3.org/2000/svg">
<g clip-path="url(#clip0_105_1015)">
<path fill-rule="evenodd" clip-rule="evenodd" d="M19.2 3.7H21.6C22.2365 3.7 22.847 3.95286 23.2971 4.40294C23.7471 4.85303 24 5.46348 24 6.1V22.1C24 22.7365 23.7471 23.347 23.2971 23.7971C22.847 24.2471 22.2365 24.5 21.6 24.5H2.4C1.76348 24.5 1.15303 24.2471 0.702944 23.7971C0.252856 23.347 0 22.7365 0 22.1L0 6.1C0 5.46348 0.252856 4.85303 0.702944 4.40294C1.15303 3.95286 1.76348 3.7 2.4 3.7H4.8V0.5H6.4V3.7H17.6V0.5H19.2V3.7ZM9.6 13.3H4.8V11.7H9.6V13.3ZM19.2 11.7H14.4V13.3H19.2V11.7ZM9.6 18.1H4.8V16.5H9.6V18.1ZM14.4 18.1H19.2V16.5H14.4V18.1Z" fill="black"/>
</g>
<defs>
<clipPath id="clip0_105_1015">
<rect width="24" height="24" fill="white" transform="translate(0 0.5)"/>
</clipPath>
</defs>
</svg>
