<svg width="24" height="25" viewBox="0 0 24 25" fill="none" xmlns="http://www.w3.org/2000/svg">
<path d="M5.25 11.75H20.25C20.4489 11.75 20.6397 11.829 20.7803 11.9697C20.921 12.1103 21 12.3011 21 12.5C21 12.6989 20.921 12.8897 20.7803 13.0303C20.6397 13.171 20.4489 13.25 20.25 13.25H5.25C5.05109 13.25 4.86032 13.171 4.71967 13.0303C4.57902 12.8897 4.5 12.6989 4.5 12.5C4.5 12.3011 4.57902 12.1103 4.71967 11.9697C4.86032 11.829 5.05109 11.75 5.25 11.75Z" fill="black"/>
<path d="M5.56038 12.5L11.7809 18.719C11.9217 18.8598 12.0008 19.0508 12.0008 19.25C12.0008 19.4492 11.9217 19.6402 11.7809 19.781C11.64 19.9218 11.449 20.0009 11.2499 20.0009C11.0507 20.0009 10.8597 19.9218 10.7189 19.781L3.96888 13.031C3.89903 12.9613 3.84362 12.8786 3.80581 12.7875C3.768 12.6963 3.74854 12.5987 3.74854 12.5C3.74854 12.4014 3.768 12.3037 3.80581 12.2126C3.84362 12.1214 3.89903 12.0387 3.96888 11.969L10.7189 5.219C10.8597 5.07817 11.0507 4.99905 11.2499 4.99905C11.449 4.99905 11.64 5.07817 11.7809 5.219C11.9217 5.35983 12.0008 5.55084 12.0008 5.75C12.0008 5.94916 11.9217 6.14017 11.7809 6.281L5.56038 12.5Z" fill="black"/>
</svg>
