<svg width="21" height="21" viewBox="0 0 21 21" fill="none" xmlns="http://www.w3.org/2000/svg">
<g clip-path="url(#clip0_64_1141)">
<path d="M15.4116 13.5759C16.6825 11.8417 17.2517 9.69154 17.0054 7.55566C16.759 5.41977 15.7153 3.45566 14.083 2.05626C12.4507 0.656858 10.3502 -0.0746208 8.2018 0.00816266C6.05335 0.0909462 4.01538 0.981887 2.49562 2.50274C0.975851 4.02359 0.0863682 6.0622 0.00512201 8.21071C-0.0761241 10.3592 0.656858 12.4592 2.05743 14.0905C3.45799 15.7217 5.42285 16.7641 7.55892 17.0089C9.69498 17.2537 11.8447 16.6829 13.578 15.4108H13.5767C13.6161 15.4633 13.6581 15.5131 13.7053 15.5617L18.7585 20.6148C19.0046 20.8611 19.3384 20.9995 19.6866 20.9997C20.0348 20.9998 20.3687 20.8616 20.615 20.6155C20.8613 20.3694 20.9997 20.0355 20.9998 19.6874C20.9999 19.3392 20.8617 19.0052 20.6156 18.759L15.5625 13.7058C15.5156 13.6583 15.4651 13.6158 15.4116 13.5759ZM15.7502 8.53065C15.7502 9.47863 15.5635 10.4173 15.2007 11.2931C14.8379 12.169 14.3062 12.9648 13.6359 13.6351C12.9656 14.3054 12.1698 14.8371 11.294 15.1999C10.4181 15.5627 9.47943 15.7494 8.53145 15.7494C7.58347 15.7494 6.64478 15.5627 5.76896 15.1999C4.89314 14.8371 4.09735 14.3054 3.42703 13.6351C2.7567 12.9648 2.22497 12.169 1.8622 11.2931C1.49942 10.4173 1.3127 9.47863 1.3127 8.53065C1.3127 6.61612 2.07325 4.78 3.42703 3.42622C4.7808 2.07244 6.61692 1.3119 8.53145 1.3119C10.446 1.3119 12.2821 2.07244 13.6359 3.42622C14.9897 4.78 15.7502 6.61612 15.7502 8.53065Z" fill="black" fill-opacity="0.41"/>
</g>
<defs>
<clipPath id="clip0_64_1141">
<rect width="21" height="21" fill="white"/>
</clipPath>
</defs>
</svg>
