<svg width="362" height="357" viewBox="0 0 362 357" fill="none" xmlns="http://www.w3.org/2000/svg">
<path d="M181 304.719C213.643 304.719 245.052 292.418 268.802 270.333L232.344 232.202C218.456 245.116 200.088 252.309 181 252.309L181 304.719Z" fill="#90BE6D"/>
<path d="M181 304.719C197.807 304.719 214.45 301.454 229.978 295.111C245.506 288.768 259.615 279.471 271.5 267.75C283.384 256.03 292.812 242.115 299.244 226.802C305.676 211.488 308.986 195.075 308.986 178.5L255.843 178.5C255.843 188.193 253.907 197.791 250.146 206.746C246.384 215.701 240.872 223.837 233.922 230.691C226.972 237.545 218.721 242.982 209.641 246.691C200.56 250.4 190.828 252.309 181 252.309L181 304.719Z" fill="#4FF9EF"/>
<path d="M53.0133 178.5C53.0133 195.075 56.3238 211.488 62.7557 226.802C69.1876 242.115 78.615 256.03 90.4996 267.75C102.384 279.471 116.493 288.768 132.021 295.111C147.549 301.454 164.192 304.719 181 304.719L181 252.309C171.171 252.309 161.439 250.4 152.358 246.691C143.278 242.982 135.027 237.545 128.078 230.691C121.128 223.837 115.615 215.701 111.854 206.746C108.092 197.791 106.156 188.193 106.156 178.5L53.0133 178.5Z" fill="#F3722C"/>
<path d="M271.5 89.25C259.615 77.5295 245.506 68.2323 229.978 61.8892C214.45 55.5462 197.807 52.2814 181 52.2814L181 104.691C190.829 104.691 200.561 106.6 209.641 110.309C218.722 114.018 226.972 119.455 233.922 126.309L271.5 89.25Z" fill="#41F95E"/>
<path d="M308.986 178.5C308.986 161.925 305.676 145.512 299.244 130.198C292.812 114.885 283.384 100.971 271.5 89.2501L233.922 126.309C240.872 133.163 246.384 141.299 250.146 150.254C253.907 159.209 255.843 168.807 255.843 178.5L308.986 178.5Z" fill="#571EF8"/>
<path d="M181 52.2815C164.192 52.2815 147.549 55.5462 132.021 61.8893C116.493 68.2324 102.384 77.5296 90.4996 89.2501C78.6149 100.971 69.1875 114.885 62.7556 130.198C56.3237 145.512 53.0132 161.925 53.0132 178.5C53.0132 195.075 56.3237 211.488 62.7556 226.802C69.1875 242.115 78.6149 256.03 90.4996 267.75C102.384 279.471 116.493 288.768 132.021 295.111C147.549 301.454 164.192 304.719 181 304.719V252.309C171.171 252.309 161.439 250.4 152.358 246.691C143.278 242.982 135.027 237.545 128.077 230.691C121.128 223.837 115.615 215.701 111.854 206.746C108.092 197.791 106.156 188.193 106.156 178.5C106.156 168.807 108.092 159.209 111.854 150.254C115.615 141.299 121.128 133.163 128.077 126.309C135.027 119.455 143.278 114.018 152.358 110.309C161.439 106.6 171.171 104.691 181 104.691V52.2815Z" fill="#41F95E"/>
</svg>
