<svg width="95" height="94" viewBox="0 0 95 94" fill="none" xmlns="http://www.w3.org/2000/svg">
<circle cx="47.5" cy="47" r="46.5" fill="#34B5C8" stroke="#1391A4"/>
<path d="M42.125 63.1666H36.25C34.1724 63.1666 32.18 62.3413 30.711 60.8723C29.2419 59.4033 28.4166 57.4108 28.4166 55.3333V37.7083C28.4166 35.6308 29.2419 33.6383 30.711 32.1693C32.18 30.7003 34.1724 29.875 36.25 29.875H57.7916C59.8692 29.875 61.8616 30.7003 63.3306 32.1693C64.7997 33.6383 65.625 35.6308 65.625 37.7083V43.5833M40.1666 27.9166V31.8333M53.875 27.9166V31.8333M28.4166 39.6666H65.625M60.7291 54.6342L57.7916 57.5717" stroke="white" stroke-width="2" stroke-linecap="round" stroke-linejoin="round"/>
<path d="M57.7917 67.0833C63.1995 67.0833 67.5833 62.6995 67.5833 57.2917C67.5833 51.8839 63.1995 47.5 57.7917 47.5C52.3839 47.5 48 51.8839 48 57.2917C48 62.6995 52.3839 67.0833 57.7917 67.0833Z" stroke="white" stroke-width="2" stroke-linecap="round" stroke-linejoin="round"/>
</svg>
