<svg width="94" height="94" viewBox="0 0 94 94" fill="none" xmlns="http://www.w3.org/2000/svg">
<circle cx="47" cy="47" r="46.5" fill="#649BF2" stroke="#25E3C1"/>
<path d="M41.625 63.1666H35.75C33.6724 63.1666 31.68 62.3413 30.211 60.8723C28.7419 59.4033 27.9166 57.4108 27.9166 55.3333V37.7083C27.9166 35.6308 28.7419 33.6383 30.211 32.1693C31.68 30.7003 33.6724 29.875 35.75 29.875H57.2916C59.3692 29.875 61.3616 30.7003 62.8306 32.1693C64.2997 33.6383 65.125 35.6308 65.125 37.7083V43.5833M39.6666 27.9166V31.8333M53.375 27.9166V31.8333M27.9166 39.6666H65.125M60.2291 54.6342L57.2916 57.5717" stroke="white" stroke-width="2" stroke-linecap="round" stroke-linejoin="round"/>
<path d="M57.2917 67.0833C62.6995 67.0833 67.0833 62.6995 67.0833 57.2917C67.0833 51.8839 62.6995 47.5 57.2917 47.5C51.8839 47.5 47.5 51.8839 47.5 57.2917C47.5 62.6995 51.8839 67.0833 57.2917 67.0833Z" stroke="white" stroke-width="2" stroke-linecap="round" stroke-linejoin="round"/>
</svg>
