<svg width="24" height="25" viewBox="0 0 24 25" fill="none" xmlns="http://www.w3.org/2000/svg">
<path d="M6 20.5C5.45 20.5 4.97933 20.3043 4.588 19.913C4.19667 19.5217 4.00067 19.0507 4 18.5C4 17.95 4.196 17.4793 4.588 17.088C4.98 16.6967 5.45067 16.5007 6 16.5C6.55 16.5 7.021 16.696 7.413 17.088C7.805 17.48 8.00067 17.9507 8 18.5C8 19.05 7.80433 19.521 7.413 19.913C7.02167 20.305 6.55067 20.5007 6 20.5ZM6 14.5C5.45 14.5 4.97933 14.3043 4.588 13.913C4.19667 13.5217 4.00067 13.0507 4 12.5C4 11.95 4.196 11.4793 4.588 11.088C4.98 10.6967 5.45067 10.5007 6 10.5C6.55 10.5 7.021 10.696 7.413 11.088C7.805 11.48 8.00067 11.9507 8 12.5C8 13.05 7.80433 13.521 7.413 13.913C7.02167 14.305 6.55067 14.5007 6 14.5ZM6 8.5C5.45 8.5 4.97933 8.30433 4.588 7.913C4.19667 7.52167 4.00067 7.05067 4 6.5C4 5.95 4.196 5.47933 4.588 5.088C4.98 4.69667 5.45067 4.50067 6 4.5C6.55 4.5 7.021 4.696 7.413 5.088C7.805 5.48 8.00067 5.95067 8 6.5C8 7.05 7.80433 7.521 7.413 7.913C7.02167 8.305 6.55067 8.50067 6 8.5ZM12 8.5C11.45 8.5 10.9793 8.30433 10.588 7.913C10.1967 7.52167 10.0007 7.05067 10 6.5C10 5.95 10.196 5.47933 10.588 5.088C10.98 4.69667 11.4507 4.50067 12 4.5C12.55 4.5 13.021 4.696 13.413 5.088C13.805 5.48 14.0007 5.95067 14 6.5C14 7.05 13.8043 7.521 13.413 7.913C13.0217 8.305 12.5507 8.50067 12 8.5ZM18 8.5C17.45 8.5 16.9793 8.30433 16.588 7.913C16.1967 7.52167 16.0007 7.05067 16 6.5C16 5.95 16.196 5.47933 16.588 5.088C16.98 4.69667 17.4507 4.50067 18 4.5C18.55 4.5 19.021 4.696 19.413 5.088C19.805 5.48 20.0007 5.95067 20 6.5C20 7.05 19.8043 7.521 19.413 7.913C19.0217 8.305 18.5507 8.50067 18 8.5ZM12 14.5C11.45 14.5 10.9793 14.3043 10.588 13.913C10.1967 13.5217 10.0007 13.0507 10 12.5C10 11.95 10.196 11.4793 10.588 11.088C10.98 10.6967 11.4507 10.5007 12 10.5C12.55 10.5 13.021 10.696 13.413 11.088C13.805 11.48 14.0007 11.9507 14 12.5C14 13.05 13.8043 13.521 13.413 13.913C13.0217 14.305 12.5507 14.5007 12 14.5ZM13 20.5V17.425L18.525 11.925C18.675 11.775 18.8417 11.6667 19.025 11.6C19.2083 11.5333 19.3917 11.5 19.575 11.5C19.775 11.5 19.9667 11.5377 20.15 11.613C20.3333 11.6883 20.5 11.8007 20.65 11.95L21.575 12.875C21.7083 13.025 21.8127 13.1917 21.888 13.375C21.9633 13.5583 22.0007 13.7417 22 13.925C22 14.1083 21.9667 14.296 21.9 14.488C21.8333 14.68 21.725 14.8507 21.575 15L16.075 20.5H13ZM19.575 14.9L20.5 13.925L19.575 13L18.625 13.95L19.575 14.9Z" fill="black"/>
</svg>
