<svg width="24" height="25" viewBox="0 0 24 25" fill="none" xmlns="http://www.w3.org/2000/svg">
<path d="M12 12.5C10.9 12.5 9.95833 12.1083 9.175 11.325C8.39167 10.5417 8 9.6 8 8.5C8 7.4 8.39167 6.45833 9.175 5.675C9.95833 4.89167 10.9 4.5 12 4.5C13.1 4.5 14.0417 4.89167 14.825 5.675C15.6083 6.45833 16 7.4 16 8.5C16 9.6 15.6083 10.5417 14.825 11.325C14.0417 12.1083 13.1 12.5 12 12.5ZM4 20.5V17.7C4 17.1333 4.146 16.6127 4.438 16.138C4.73 15.6633 5.11733 15.3007 5.6 15.05C6.63333 14.5333 7.68333 14.146 8.75 13.888C9.81667 13.63 10.9 13.5007 12 13.5C13.1 13.5 14.1833 13.6293 15.25 13.888C16.3167 14.1467 17.3667 14.534 18.4 15.05C18.8833 15.3 19.271 15.6627 19.563 16.138C19.855 16.6133 20.0007 17.134 20 17.7V20.5H4ZM6 18.5H18V17.7C18 17.5167 17.9543 17.35 17.863 17.2C17.7717 17.05 17.6507 16.9333 17.5 16.85C16.6 16.4 15.6917 16.0627 14.775 15.838C13.8583 15.6133 12.9333 15.5007 12 15.5C11.0667 15.5 10.1417 15.6127 9.225 15.838C8.30833 16.0633 7.4 16.4007 6.5 16.85C6.35 16.9333 6.229 17.05 6.137 17.2C6.045 17.35 5.99933 17.5167 6 17.7V18.5ZM12 10.5C12.55 10.5 13.021 10.3043 13.413 9.913C13.805 9.52167 14.0007 9.05067 14 8.5C14 7.95 13.8043 7.47933 13.413 7.088C13.0217 6.69667 12.5507 6.50067 12 6.5C11.45 6.5 10.9793 6.696 10.588 7.088C10.1967 7.48 10.0007 7.95067 10 8.5C10 9.05 10.196 9.521 10.588 9.913C10.98 10.305 11.4507 10.5007 12 10.5Z" fill="black"/>
</svg>
